<?xml version="1.0" encoding="UTF-8"?>
<svg xmlns="http://www.w3.org/2000/svg" xmlns:xlink="http://www.w3.org/1999/xlink" width="33px" height="32px" viewBox="0 0 33 32" version="1.1">
<g id="surface1">
<path style=" stroke:none;fill-rule:nonzero;fill:rgb(0%,25.882354%,18.039216%);fill-opacity:1;" d="M 26.597656 4.164062 L 6.042969 4.167969 C 3.34375 4.167969 1.019531 2.457031 0.15625 0.0078125 L 26.574219 0 C 30.019531 0 32.820312 2.8125 32.820312 6.269531 L 32.820312 6.726562 C 31.21875 5.132812 29.015625 4.164062 26.597656 4.164062 Z M 26.597656 4.164062 "/>
<path style=" stroke:none;fill-rule:nonzero;fill:rgb(0%,25.882354%,18.039216%);fill-opacity:1;" d="M 6.222656 6.761719 L 26.777344 6.757812 C 29.957031 6.757812 32.613281 9.132812 32.976562 12.296875 L 32.976562 13.476562 C 31.519531 12.03125 29.566406 11.09375 27.398438 10.945312 C 27.398438 10.9375 27.394531 10.929688 27.394531 10.917969 L 24.125 10.917969 C 22.917969 10.921875 21.9375 11.90625 21.9375 13.117188 L 21.941406 25.726562 C 21.941406 29.183594 19.140625 32 15.699219 32 L 15.230469 32 C 16.820312 30.390625 17.796875 28.183594 17.796875 25.753906 L 17.792969 13.097656 C 17.792969 12.332031 17.933594 11.601562 18.183594 10.921875 L 17.398438 10.921875 C 16.207031 10.921875 15.214844 11.878906 15.210938 13.074219 L 15.210938 13.097656 L 15.214844 25.753906 C 15.214844 28.464844 13.511719 30.796875 11.070312 31.664062 L 11.066406 13.121094 C 11.066406 12.347656 11.210938 11.609375 11.46875 10.921875 L 6.246094 10.925781 C 2.800781 10.925781 0 8.113281 0 4.65625 L 0 4.1875 C 1.601562 5.785156 3.800781 6.761719 6.21875 6.761719 Z M 6.222656 6.761719 "/>
</g>
</svg>
