<?xml version="1.0" encoding="utf-8"?>
<!-- Generator: Adobe Illustrator 29.5.1, SVG Export Plug-In . SVG Version: 9.03 Build 0)  -->
<!DOCTYPE svg PUBLIC "-//W3C//DTD SVG 1.1//EN" "http://www.w3.org/Graphics/SVG/1.1/DTD/svg11.dtd" [
	<!ENTITY st0 "fill:#A87F41;">
	<!ENTITY st1 "fill:#FFF0CA;">
]>
<svg version="1.1" id="Layer_1" xmlns="http://www.w3.org/2000/svg" xmlns:xlink="http://www.w3.org/1999/xlink" x="0px" y="0px"
	 viewBox="0 0 601 600" style="enable-background:new 0 0 601 600;" xml:space="preserve">
<circle style="&st0;" cx="300.5" cy="300" r="299.539"/>
<g>
	<path style="&st1;" d="M319.34647,450.28848l-0.0704-305.62292c0-40.12758,25.34122-74.64703,61.63306-87.4908l0.10117,392.78024
		c0,51.18268-41.65179,92.82635-92.85956,92.84662h-6.79504C304.96719,518.99426,319.35699,486.23309,319.34647,450.28848z"/>
	<path style="&st1;" d="M280.87003,149.71147l0.07123,305.62213c0,40.12848-25.34122,74.64767-61.63387,87.49149l-0.10117-392.78012
		c0-51.18307,41.65178-92.82675,92.85954-92.84695h6.79587C295.24933,81.00589,280.86032,113.76704,280.87003,149.71147z"/>
	<path style="&st1;" d="M149.77765,319.83395l305.62292-0.07043c40.12769,0,74.64685,25.34125,87.49066,61.63388l-392.78009,0.10117
		c-51.183,0-92.82661-41.65259-92.84682-92.86035l0-6.79507C81.07223,305.45465,113.83338,319.84445,149.77765,319.83395z"/>
	<path style="&st1;" d="M450.35629,281.3591l-305.62292,0.07043c-40.12766,0-74.64711-25.34042-87.49091-61.63306l392.78033-0.10118
		c51.18271,0,92.82639,41.65178,92.84665,92.85954v6.7959C519.06122,295.7384,486.30011,281.3486,450.35629,281.3591z"/>
</g>
</svg>
