<?xml version="1.0" encoding="utf-8"?>
<!-- Generator: Adobe Illustrator 29.5.1, SVG Export Plug-In . SVG Version: 9.03 Build 0)  -->
<!DOCTYPE svg PUBLIC "-//W3C//DTD SVG 1.1//EN" "http://www.w3.org/Graphics/SVG/1.1/DTD/svg11.dtd" [
	<!ENTITY st0 "fill:#A87F41;">
	<!ENTITY st1 "display:none;">
	<!ENTITY st2 "display:inline;fill:#FFF0CA;">
	<!ENTITY st3 "fill:#FFF1CA;">
]>
<svg version="1.1" id="Layer_1" xmlns="http://www.w3.org/2000/svg" xmlns:xlink="http://www.w3.org/1999/xlink" x="0px" y="0px"
	 viewBox="0 0 601 600" style="enable-background:new 0 0 601 600;" xml:space="preserve">
<circle style="&st0;" cx="300.5" cy="300" r="299.539"/>
<g style="&st1;">
	<path style="&st2;" d="M319.34647,450.28848l-0.0704-305.62292c0-40.12758,25.34122-74.64703,61.63306-87.4908l0.10117,392.78024
		c0,51.18268-41.65179,92.82635-92.85956,92.84662h-6.79504C304.96719,518.99426,319.35699,486.23309,319.34647,450.28848z"/>
	<path style="&st2;" d="M280.87003,149.71147l0.07123,305.62213c0,40.12848-25.34122,74.64767-61.63387,87.49149l-0.10117-392.78012
		c0-51.18307,41.65178-92.82675,92.85954-92.84695h6.79587C295.24933,81.00589,280.86032,113.76704,280.87003,149.71147z"/>
	<path style="&st2;" d="M149.77765,319.83395l305.62292-0.07043c40.12769,0,74.64685,25.34125,87.49066,61.63388l-392.78009,0.10117
		c-51.183,0-92.82661-41.65259-92.84682-92.86035l0-6.79507C81.07223,305.45465,113.83338,319.84445,149.77765,319.83395z"/>
	<path style="&st2;" d="M450.35629,281.3591l-305.62292,0.07043c-40.12766,0-74.64711-25.34042-87.49091-61.63306l392.78033-0.10118
		c51.18271,0,92.82639,41.65178,92.84665,92.85954v6.7959C519.06122,295.7384,486.30011,281.3486,450.35629,281.3591z"/>
</g>
<g>
	<path style="&st3;" d="M418.33075,193.87831l-239.60539,0.05574c-31.45978,0-58.52271-19.91916-68.59207-48.44649
		l307.93518-0.07948c40.1272,0,72.77527,32.74005,72.79105,72.99167v5.34117
		C472.19528,205.1813,446.5105,193.87042,418.33075,193.87831z"/>
	<path style="&st3;" d="M180.81604,224.13831l239.60556-0.05518c37.06903,0,68.00601,27.67647,72.26791,64.4946v13.72647
		c-16.99323-16.80298-39.77896-27.71631-65.03525-29.45691c-0.02295-0.09558-0.03873-0.19876-0.06308-0.29437h-38.08221
		c-14.08704,0.0162-25.50281,11.46982-25.4942,25.60257l0.03152,146.81735c0,40.25192-32.63229,73.01605-72.75235,73.0318h-5.44278
		c18.52234-18.72729,29.88367-44.44077,29.88367-72.73657l-0.03152-147.36624c0-8.89502,1.62366-17.41574,4.53134-25.32468h-9.14294
		c-13.87921,0-25.46124,11.1438-25.4942,25.06958v0.26224l0.03296,147.36627c0,31.5632-19.85367,58.71548-48.28778,68.81857
		l-0.05576-215.92258c0-9.00537,1.71136-17.59818,4.69055-25.57043l-60.87596,0.01605
		c-40.12694,0-72.77521-32.74007-72.79105-72.99168v-5.45265c18.66523,18.58368,44.29428,29.98198,72.49812,29.98198
		L180.81604,224.13831z"/>
</g>
</svg>
